<svg width="67" height="67" xmlns="http://www.w3.org/2000/svg">

 <g>
  <title>background</title>
  <rect fill="none" id="canvas_background" height="402" width="582" y="-1" x="-1"/>
 </g>
 <g>
  <title>Layer 1</title>
  <rect stroke="#000" id="svg_2" height="41.232608" width="27.773258" y="13.996961" x="19.773601" stroke-width="1.5" fill="#fff"/>
  <path id="svg_1" fill-rule="evenodd" clip-rule="evenodd" fill="#3A589B" d="m29.765,50.32l6.744,0l0,-16.322l4.499,0l0.596,-5.624l-5.095,0l0.007,-2.816c0,-1.466 0.14,-2.253 2.244,-2.253l2.812,0l0,-5.625l-4.5,0c-5.405,0 -7.307,2.729 -7.307,7.317l0,3.377l-3.369,0l0,5.625l3.369,0l0,16.321zm4.235,13.68c-16.568,0 -30,-13.432 -30,-30c0,-16.569 13.432,-30 30,-30s30,13.431 30,30c0,16.568 -13.432,30 -30,30z"/>
  <path id="svg_7" fill-rule="evenodd" clip-rule="evenodd" fill="#3A589B" d="m289.83868,489.994368l65.670151,0l0,-158.936567l43.809314,0l5.80359,-54.764076l-49.612903,0l0.068163,-27.420988c0,-14.275273 1.363259,-21.938738 21.8511,-21.938738l27.382038,0l0,-54.773814l-43.819051,0c-52.631549,0 -71.152402,26.57382 -71.152402,71.249777l0,32.883764l-32.805863,0l0,54.773814l32.805863,0l0,158.92683zm41.238596,133.209916c-161.332009,0 -292.127008,-130.794999 -292.127008,-292.127008c0,-161.341746 130.794999,-292.127008 292.127008,-292.127008s292.127008,130.785261 292.127008,292.127008c0,161.332009 -130.794999,292.127008 -292.127008,292.127008z"/>
  <g id="svg_8"/>
 </g>
</svg>