<svg width="128" height="128" xmlns="http://www.w3.org/2000/svg">
 <defs>
  <radialGradient r="200" id="svg_3" gradientUnits="userSpaceOnUse" cy="1" cx="1">
   <stop stop-color="#FFB140" offset="0.234375"/>
   <stop stop-color="#FF5445" offset="0.503906"/>
   <stop stop-color="#FC2B82" offset="0.730469"/>
   <stop stop-color="#8E40B7" offset="1"/>
  </radialGradient>
 </defs>
 <g>
  <title>background</title>
  <rect fill="none" id="canvas_background" height="402" width="582" y="-1" x="-1"/>
 </g>
 <g>
  <title>Layer 1</title>
  <rect x="0.217685" y="0" id="svg_1" width="128" height="128" fill-rule="evenodd" fill="none" clip-rule="evenodd"/>
  <ellipse stroke="null" ry="63.781629" rx="63.890467" id="svg_4" cy="63.656473" cx="64" stroke-opacity="null" stroke-width="null" fill="url(#svg_3)"/>
  <ellipse ry="0.108842" id="svg_6" cy="78.132502" cx="84.353522" stroke-opacity="null" stroke-width="null" stroke="null" fill="url(#svg_3)"/>
  <ellipse id="svg_8" cy="27.956173" cx="77.605295" stroke-opacity="null" stroke-width="null" stroke="null" fill="url(#svg_3)"/>
  <path stroke="null" id="Instagram" fill-rule="evenodd" fill="#ffffff" d="m88.073672,43.61399c0,2.5178 -2.04119,4.5584 -4.5584,4.5584c-2.51721,0 -4.5584,-2.0406 -4.5584,-4.5584c0,-2.51781 2.04119,-4.5584 4.5584,-4.5584c2.51781,0 4.5584,2.04059 4.5584,4.5584zm-24.83557,32.93919c-6.99311,0 -12.66203,-5.66892 -12.66203,-12.66203c0,-6.9931 5.66892,-12.66202 12.66203,-12.66202c6.99311,0 12.66203,5.66892 12.66203,12.66202c0,6.99311 -5.66892,12.66203 -12.66203,12.66203zm0,-32.16878c-10.77338,0 -19.50675,8.73338 -19.50675,19.50675c0,10.77338 8.73337,19.50676 19.50675,19.50676c10.77338,0 19.50675,-8.73338 19.50675,-19.50676c0,-10.77337 -8.73337,-19.50675 -19.50675,-19.50675zm0,-11.6352c10.14304,0 11.34437,0.03858 15.34959,0.22139c3.7037,0.16916 5.71521,0.78763 7.05365,1.30817c1.77291,0.6891 3.03834,1.51235 4.36787,2.84188c1.32954,1.32894 2.15278,2.59437 2.84188,4.36787c0.51994,1.33844 1.13901,3.34995 1.30817,7.05365c0.18281,4.00582 0.22139,5.20715 0.22139,15.35018c0,10.14304 -0.03858,11.34437 -0.22139,15.34959c-0.16916,3.7037 -0.78763,5.71521 -1.30817,7.05365c-0.6891,1.77291 -1.51234,3.03834 -2.84188,4.36787c-1.32894,1.32953 -2.59437,2.15278 -4.36787,2.84188c-1.33844,0.51994 -3.34995,1.13901 -7.05365,1.30817c-4.00522,0.18281 -5.20655,0.22139 -15.34959,0.22139c-10.14363,0 -11.34496,-0.03858 -15.35018,-0.22139c-3.7037,-0.16916 -5.71521,-0.78763 -7.05365,-1.30817c-1.77291,-0.6891 -3.03834,-1.51235 -4.36787,-2.84188c-1.32894,-1.32894 -2.15278,-2.59437 -2.84188,-4.36787c-0.51994,-1.33844 -1.13901,-3.34995 -1.30817,-7.05365c-0.18281,-4.00582 -0.22139,-5.20715 -0.22139,-15.34959c0,-10.14303 0.03858,-11.34436 0.22139,-15.35018c0.16916,-3.7037 0.78763,-5.71521 1.30817,-7.05365c0.6891,-1.77291 1.51235,-3.03834 2.84188,-4.36787c1.32894,-1.32953 2.59437,-2.15278 4.36787,-2.84188c1.33844,-0.51994 3.34995,-1.13901 7.05365,-1.30817c4.00582,-0.18281 5.20715,-0.22139 15.35018,-0.22139zm0,-6.84472c-10.31635,0 -11.61027,0.04392 -15.66179,0.22851c-4.0432,0.18459 -6.80495,0.82681 -9.22067,1.76579c-2.49821,0.97044 -4.61657,2.2697 -6.72839,4.38153c-2.11182,2.11182 -3.41108,4.23017 -4.38152,6.72839c-0.93899,2.4163 -1.5812,5.17746 -1.76579,9.22067c-0.18459,4.05151 -0.22851,5.34543 -0.22851,15.66178c0,10.31635 0.04392,11.61028 0.22851,15.66179c0.18459,4.04321 0.8268,6.80437 1.76579,9.22067c0.97044,2.49822 2.2697,4.61657 4.38152,6.72839c2.11182,2.11183 4.23018,3.4105 6.72839,4.38153c2.41631,0.93898 5.17747,1.58119 9.22067,1.76579c4.05152,0.18459 5.34544,0.22851 15.66179,0.22851c10.31635,0 11.61027,-0.04392 15.66179,-0.22851c4.04321,-0.1846 6.80436,-0.82681 9.22067,-1.76579c2.49822,-0.97103 4.61657,-2.2697 6.72839,-4.38153c2.11182,-2.11182 3.41049,-4.23017 4.38153,-6.72839c0.93898,-2.4163 1.58119,-5.17746 1.76578,-9.22067c0.1846,-4.05151 0.22852,-5.34544 0.22852,-15.66179c0,-10.31635 -0.04392,-11.61027 -0.22852,-15.66178c-0.18459,-4.04321 -0.8268,-6.80437 -1.76578,-9.22067c-0.97104,-2.49822 -2.26971,-4.61657 -4.38153,-6.72839c-2.11182,-2.11183 -4.23017,-3.4105 -6.72839,-4.38153c-2.41631,-0.93898 -5.17746,-1.5812 -9.22067,-1.76579c-4.05152,-0.18459 -5.34544,-0.22851 -15.66179,-0.22851z" clip-rule="evenodd"/>
 </g>
</svg>